<svg xmlns="http://www.w3.org/2000/svg" viewBox="0 0 414.88 165.3"><path d="M404.83 101.64c1.46-2.14 2.46-4.64 2.85-7.35l4.01-27.83c.16-.95.24-1.92.24-2.92 0-9.67-7.84-17.52-17.52-17.52h-15.37l3.55-24.66a17.53 17.53 0 0 0-4.1-13.97 17.53 17.53 0 0 0-13.24-6.05h-30.59c-8.71 0-16.1 6.4-17.34 15.02l-4.4 30.55c-1.74-.58-3.6-.89-5.53-.89h-15.37l3.55-24.66a17.53 17.53 0 0 0-4.1-13.97 17.53 17.53 0 0 0-13.24-6.05h-30.59c-6.31 0-11.93 3.36-15.02 8.49C226.51 3.75 218.09 0 208.81 0c-8.03 0-15.42 2.82-21.23 7.51-3.21-3.78-8-6.17-13.34-6.17H77.05c-19.63 0-32.91 3.85-44.4 12.88-13.77 10.82-17.54 27.19-19.17 38.55L.18 145.28a17.53 17.53 0 0 0 4.1 13.97 17.53 17.53 0 0 0 13.24 6.05h30.59c8.71 0 16.1-6.4 17.34-15.02l4.44-30.82h41.6l-3.72 25.83a17.53 17.53 0 0 0 4.1 13.97 17.53 17.53 0 0 0 13.24 6.05h82.6c8.71 0 16.1-6.4 17.34-15.02l1.36-9.43c5.28 8.16 12.73 14.78 21.72 18.9 10.12 4.64 20.62 5.55 35.34 5.55H306c8.15 0 15.13-5.6 17.02-13.37 3.62 3.14 7.69 5.79 12.13 7.83 10.12 4.64 20.62 5.55 35.34 5.55h22.53c8.71 0 16.1-6.4 17.34-15.02l4.3-29.86c.16-.95.24-1.92.24-2.92 0-7.01-4.11-13.05-10.05-15.85Z" style="fill:#7087fc"/><path d="M58.78 73.68h56.59l-4.07 28.25H54.71l-6.61 45.84H17.51l13.33-92.5c1.76-12.19 5.32-21.51 12.66-27.28 7.7-6.06 16.77-9.14 33.57-9.14h46.19l-4.36 30.28H75.26c-4.23 0-7.68.31-10.26 2.28-2.16 1.64-3.64 4.3-4.3 8.87l-1.93 13.4Zm96.9 74.1 18.57-128.92h-30.59l-18.57 128.92h30.59Zm52.02 0 12.14-84.24h-30.59l-12.14 84.24h30.59Zm17.41-113.97c0 9-7.29 16.29-16.28 16.29s-16.29-7.29-16.29-16.29 7.29-16.29 16.29-16.29 16.28 7.3 16.28 16.29Zm22.54-14.95h30.59l-6.44 44.68h35.59l-4.07 28.25h-35.59l-1.74 12.11c-.54 3.75-.21 7.01 1.52 9.44 2.16 3.04 5.74 4.15 12.68 4.15h30.15l-4.36 30.28h-22.53c-14.57 0-21.64-1.02-28.04-3.95-11.89-5.45-19.18-17.29-20.08-29.96-.26-3.65.12-10.33 1.3-18.48l11.03-76.52Zm87.02 0h30.59l-6.44 44.68h35.59l-4.07 28.25h-35.59l-1.74 12.11c-.54 3.75-.21 7.01 1.52 9.44 2.16 3.04 5.74 4.15 12.68 4.15h30.15L393 147.77h-22.53c-14.57 0-21.64-1.02-28.04-3.95-11.89-5.45-19.18-17.29-20.08-29.96-.26-3.65.12-10.33 1.3-18.48l11.03-76.52Z" style="fill:#fff"/></svg>